<svg width="221" height="76" viewBox="0 0 221 76" fill="none" xmlns="http://www.w3.org/2000/svg">
<path d="M11.91 64.36C9.81 64.36 7.97 63.98 6.39 63.22C4.83 62.46 3.63 61.39 2.79 60.01C1.95 58.63 1.53 57.04 1.53 55.24C1.53 52.86 2.07 50.72 3.15 48.82C4.25 46.9 5.79 45.39 7.77 44.29C9.75 43.19 12.02 42.64 14.58 42.64C16.46 42.64 18.12 42.96 19.56 43.6C21 44.24 22.09 45.16 22.83 46.36L19.32 49.24C18.2 47.6 16.51 46.78 14.25 46.78C12.71 46.78 11.35 47.14 10.17 47.86C8.99 48.58 8.07 49.56 7.41 50.8C6.77 52.04 6.45 53.42 6.45 54.94C6.45 56.56 6.96 57.85 7.98 58.81C9.02 59.75 10.47 60.22 12.33 60.22C14.55 60.22 16.41 59.41 17.91 57.79L20.79 60.73C18.71 63.15 15.75 64.36 11.91 64.36ZM31.3453 64.24C29.7253 64.24 28.2953 63.94 27.0553 63.34C25.8353 62.74 24.8853 61.9 24.2053 60.82C23.5453 59.72 23.2153 58.45 23.2153 57.01C23.2153 55.23 23.6353 53.63 24.4753 52.21C25.3153 50.79 26.4753 49.67 27.9553 48.85C29.4353 48.03 31.1053 47.62 32.9653 47.62C34.6053 47.62 36.0353 47.92 37.2553 48.52C38.4753 49.12 39.4153 49.97 40.0753 51.07C40.7553 52.15 41.0953 53.41 41.0953 54.85C41.0953 56.63 40.6753 58.23 39.8353 59.65C39.0153 61.07 37.8553 62.19 36.3553 63.01C34.8753 63.83 33.2053 64.24 31.3453 64.24ZM31.6453 60.37C32.5453 60.37 33.3553 60.15 34.0753 59.71C34.7953 59.25 35.3553 58.62 35.7553 57.82C36.1553 57.02 36.3553 56.1 36.3553 55.06C36.3553 53.96 36.0353 53.09 35.3953 52.45C34.7553 51.81 33.8553 51.49 32.6953 51.49C31.7753 51.49 30.9553 51.72 30.2353 52.18C29.5153 52.62 28.9553 53.24 28.5553 54.04C28.1553 54.84 27.9553 55.76 27.9553 56.8C27.9553 57.9 28.2753 58.77 28.9153 59.41C29.5753 60.05 30.4853 60.37 31.6453 60.37ZM66.9042 47.62C68.6642 47.62 70.0642 48.1 71.1042 49.06C72.1442 50 72.6642 51.34 72.6642 53.08C72.6642 53.72 72.5942 54.38 72.4542 55.06L70.6842 64H66.0042L67.7142 55.39C67.7942 54.99 67.8342 54.58 67.8342 54.16C67.8342 53.34 67.6142 52.72 67.1742 52.3C66.7542 51.88 66.1242 51.67 65.2842 51.67C63.0242 51.67 61.6142 53.02 61.0542 55.72L59.4042 64H54.7242L56.4342 55.39C56.5142 54.99 56.5542 54.59 56.5542 54.19C56.5542 53.37 56.3342 52.75 55.8942 52.33C55.4742 51.89 54.8442 51.67 54.0042 51.67C51.7442 51.67 50.3242 53.04 49.7442 55.78L48.1242 64H43.4442L46.6542 47.86H51.0942L50.7342 49.54C52.1342 48.26 53.8242 47.62 55.8042 47.62C56.9242 47.62 57.9142 47.85 58.7742 48.31C59.6542 48.75 60.3142 49.4 60.7542 50.26C61.5342 49.4 62.4442 48.75 63.4842 48.31C64.5242 47.85 65.6642 47.62 66.9042 47.62ZM88.0791 47.62C89.3391 47.62 90.4991 47.91 91.5591 48.49C92.6391 49.07 93.4891 49.91 94.1091 51.01C94.7491 52.09 95.0691 53.37 95.0691 54.85C95.0691 56.63 94.6691 58.24 93.8691 59.68C93.0891 61.1 92.0191 62.22 90.6591 63.04C89.2991 63.84 87.7891 64.24 86.1291 64.24C83.6691 64.24 81.9291 63.44 80.9091 61.84L79.3191 69.82H74.6391L79.0191 47.86H83.4591L83.1291 49.45C84.4691 48.23 86.1191 47.62 88.0791 47.62ZM85.5891 60.37C86.5091 60.37 87.3291 60.15 88.0491 59.71C88.7691 59.25 89.3291 58.62 89.7291 57.82C90.1291 57.02 90.3291 56.1 90.3291 55.06C90.3291 53.96 89.9991 53.09 89.3391 52.45C88.6991 51.81 87.7991 51.49 86.6391 51.49C85.7391 51.49 84.9291 51.72 84.2091 52.18C83.4891 52.62 82.9291 53.24 82.5291 54.04C82.1291 54.84 81.9291 55.76 81.9291 56.8C81.9291 57.9 82.2491 58.77 82.8891 59.41C83.5291 60.05 84.4291 60.37 85.5891 60.37ZM117.012 47.86L113.802 64H109.362L109.662 62.41C108.322 63.63 106.672 64.24 104.712 64.24C103.452 64.24 102.292 63.95 101.232 63.37C100.172 62.79 99.322 61.96 98.682 60.88C98.062 59.78 97.752 58.49 97.752 57.01C97.752 55.23 98.142 53.63 98.922 52.21C99.722 50.77 100.802 49.65 102.162 48.85C103.522 48.03 105.022 47.62 106.662 47.62C109.142 47.62 110.892 48.43 111.912 50.05L112.332 47.86H117.012ZM106.152 60.37C107.072 60.37 107.892 60.15 108.612 59.71C109.332 59.25 109.892 58.62 110.292 57.82C110.692 57.02 110.892 56.1 110.892 55.06C110.892 53.96 110.562 53.09 109.902 52.45C109.262 51.81 108.362 51.49 107.202 51.49C106.282 51.49 105.462 51.72 104.742 52.18C104.022 52.62 103.462 53.24 103.062 54.04C102.662 54.84 102.462 55.76 102.462 56.8C102.462 57.9 102.782 58.77 103.422 59.41C104.082 60.05 104.992 60.37 106.152 60.37ZM126.295 49.78C126.995 49.02 127.835 48.47 128.815 48.13C129.815 47.79 130.985 47.62 132.325 47.62L131.485 51.94C130.925 51.9 130.565 51.88 130.405 51.88C128.985 51.88 127.845 52.23 126.985 52.93C126.145 53.63 125.575 54.72 125.275 56.2L123.715 64H119.035L122.245 47.86H126.685L126.295 49.78ZM152.181 47.86L148.971 64H144.531L144.831 62.41C143.491 63.63 141.841 64.24 139.881 64.24C138.621 64.24 137.461 63.95 136.401 63.37C135.341 62.79 134.491 61.96 133.851 60.88C133.231 59.78 132.921 58.49 132.921 57.01C132.921 55.23 133.311 53.63 134.091 52.21C134.891 50.77 135.971 49.65 137.331 48.85C138.691 48.03 140.191 47.62 141.831 47.62C144.311 47.62 146.061 48.43 147.081 50.05L147.501 47.86H152.181ZM141.321 60.37C142.241 60.37 143.061 60.15 143.781 59.71C144.501 59.25 145.061 58.62 145.461 57.82C145.861 57.02 146.061 56.1 146.061 55.06C146.061 53.96 145.731 53.09 145.071 52.45C144.431 51.81 143.531 51.49 142.371 51.49C141.451 51.49 140.631 51.72 139.911 52.18C139.191 52.62 138.631 53.24 138.231 54.04C137.831 54.84 137.631 55.76 137.631 56.8C137.631 57.9 137.951 58.77 138.591 59.41C139.251 60.05 140.161 60.37 141.321 60.37ZM160.564 58.3C160.524 58.46 160.504 58.68 160.504 58.96C160.504 60 161.074 60.52 162.214 60.52C162.834 60.52 163.464 60.33 164.104 59.95L164.794 63.28C163.754 63.92 162.414 64.24 160.774 64.24C159.254 64.24 158.034 63.84 157.114 63.04C156.194 62.24 155.734 61.14 155.734 59.74C155.734 59.34 155.784 58.87 155.884 58.33L157.174 51.82H154.684L155.404 48.22H157.894L158.674 44.29H163.354L162.574 48.22H166.594L165.874 51.82H161.854L160.564 58.3ZM171.351 47.86H176.001L172.791 64H168.141L171.351 47.86ZM174.471 45.61C173.671 45.61 173.011 45.38 172.491 44.92C171.991 44.44 171.741 43.86 171.741 43.18C171.741 42.38 172.021 41.72 172.581 41.2C173.161 40.66 173.911 40.39 174.831 40.39C175.651 40.39 176.311 40.62 176.811 41.08C177.331 41.52 177.591 42.07 177.591 42.73C177.591 43.59 177.301 44.29 176.721 44.83C176.141 45.35 175.391 45.61 174.471 45.61ZM197.265 47.86L187.245 64H182.415L178.845 47.86H183.465L185.805 58.87L192.585 47.86H197.265ZM213.945 54.73C213.945 55.47 213.855 56.29 213.675 57.19H201.315C201.475 59.39 202.865 60.49 205.485 60.49C206.305 60.49 207.085 60.36 207.825 60.1C208.585 59.84 209.245 59.47 209.805 58.99L211.755 62.08C210.855 62.8 209.825 63.34 208.665 63.7C207.505 64.06 206.285 64.24 205.005 64.24C203.345 64.24 201.885 63.95 200.625 63.37C199.385 62.77 198.425 61.92 197.745 60.82C197.085 59.72 196.755 58.45 196.755 57.01C196.755 55.23 197.155 53.63 197.955 52.21C198.775 50.77 199.905 49.65 201.345 48.85C202.785 48.03 204.425 47.62 206.265 47.62C207.825 47.62 209.175 47.91 210.315 48.49C211.475 49.07 212.365 49.9 212.985 50.98C213.625 52.06 213.945 53.31 213.945 54.73ZM206.055 51.13C204.955 51.13 204.025 51.43 203.265 52.03C202.505 52.61 201.965 53.42 201.645 54.46H209.655C209.655 53.42 209.325 52.61 208.665 52.03C208.025 51.43 207.155 51.13 206.055 51.13Z" fill="#931010"/>
<path d="M37.292 35.432C34.772 35.432 32.564 34.976 30.668 34.064C28.796 33.152 27.356 31.868 26.348 30.212C25.34 28.556 24.836 26.648 24.836 24.488C24.836 21.632 25.484 19.064 26.78 16.784C28.1 14.48 29.948 12.668 32.324 11.348C34.7 10.028 37.424 9.368 40.496 9.368C42.752 9.368 44.744 9.752 46.472 10.52C48.2 11.288 49.508 12.392 50.396 13.832L46.184 17.288C44.84 15.32 42.812 14.336 40.1 14.336C38.252 14.336 36.62 14.768 35.204 15.632C33.788 16.496 32.684 17.672 31.892 19.16C31.124 20.648 30.74 22.304 30.74 24.128C30.74 26.072 31.352 27.62 32.576 28.772C33.824 29.9 35.564 30.464 37.796 30.464C40.46 30.464 42.692 29.492 44.492 27.548L47.948 31.076C45.452 33.98 41.9 35.432 37.292 35.432ZM62.987 35.432C60.467 35.432 58.283 34.976 56.435 34.064C54.587 33.152 53.171 31.868 52.187 30.212C51.203 28.556 50.711 26.648 50.711 24.488C50.711 21.632 51.359 19.064 52.655 16.784C53.975 14.48 55.811 12.668 58.163 11.348C60.539 10.028 63.251 9.368 66.299 9.368C68.819 9.368 71.003 9.824 72.851 10.736C74.699 11.648 76.115 12.932 77.099 14.588C78.083 16.244 78.575 18.152 78.575 20.312C78.575 23.168 77.915 25.748 76.595 28.052C75.299 30.332 73.463 32.132 71.087 33.452C68.735 34.772 66.035 35.432 62.987 35.432ZM63.491 30.464C65.339 30.464 66.959 30.02 68.351 29.132C69.743 28.244 70.811 27.056 71.555 25.568C72.299 24.08 72.671 22.436 72.671 20.636C72.671 18.716 72.071 17.192 70.871 16.064C69.671 14.912 67.979 14.336 65.795 14.336C63.947 14.336 62.327 14.78 60.935 15.668C59.543 16.556 58.475 17.744 57.731 19.232C56.987 20.72 56.615 22.364 56.615 24.164C56.615 26.084 57.215 27.62 58.415 28.772C59.615 29.9 61.307 30.464 63.491 30.464ZM108.718 9.8L92.7703 35H87.0463L81.1783 9.8H87.1903L91.2583 27.764L102.67 9.8H108.718ZM110.822 9.8H116.69L111.65 35H105.782L110.822 9.8ZM122.635 9.8H133.183C135.751 9.8 137.959 10.232 139.807 11.096C141.679 11.936 143.107 13.148 144.091 14.732C145.099 16.316 145.603 18.176 145.603 20.312C145.603 23.24 144.943 25.82 143.623 28.052C142.303 30.26 140.455 31.976 138.079 33.2C135.727 34.4 133.003 35 129.907 35H117.595L122.635 9.8ZM130.087 30.212C132.055 30.212 133.759 29.804 135.199 28.988C136.663 28.148 137.779 27.008 138.547 25.568C139.315 24.104 139.699 22.46 139.699 20.636C139.699 18.74 139.087 17.264 137.863 16.208C136.639 15.128 134.863 14.588 132.535 14.588H127.531L124.399 30.212H130.087ZM148.846 22.616H159.034L158.134 27.116H147.946L148.846 22.616ZM173.767 9.8L168.727 35H162.895L166.999 14.48H161.959L162.895 9.8H173.767ZM185.957 9.368C187.973 9.368 189.737 9.764 191.249 10.556C192.785 11.348 193.973 12.524 194.813 14.084C195.677 15.62 196.109 17.492 196.109 19.7C196.109 22.244 195.569 24.728 194.489 27.152C193.409 29.552 191.729 31.532 189.449 33.092C187.169 34.652 184.349 35.432 180.989 35.432C179.597 35.432 178.265 35.288 176.993 35C175.745 34.688 174.725 34.268 173.933 33.74L176.597 29.456C177.797 30.272 179.369 30.68 181.313 30.68C183.665 30.68 185.537 30.02 186.929 28.7C188.345 27.38 189.281 25.676 189.737 23.588C188.297 24.932 186.413 25.604 184.085 25.604C182.573 25.604 181.193 25.316 179.945 24.74C178.697 24.164 177.701 23.336 176.957 22.256C176.213 21.152 175.841 19.844 175.841 18.332C175.841 16.532 176.273 14.96 177.137 13.616C178.025 12.248 179.237 11.204 180.773 10.484C182.309 9.74 184.037 9.368 185.957 9.368ZM185.597 21.248C186.965 21.248 188.069 20.876 188.909 20.132C189.749 19.388 190.169 18.44 190.169 17.288C190.169 16.28 189.797 15.44 189.053 14.768C188.309 14.072 187.301 13.724 186.029 13.724C184.733 13.724 183.677 14.096 182.861 14.84C182.045 15.584 181.637 16.58 181.637 17.828C181.637 18.884 181.997 19.724 182.717 20.348C183.437 20.948 184.397 21.248 185.597 21.248Z" fill="#550101"/>
</svg>
