<svg width="248" height="148" viewBox="0 0 248 148" fill="none" xmlns="http://www.w3.org/2000/svg">
<g filter="url(#filter0_d)">
<path d="M24.6275 36H19.0475V26.316H10.1555V36H4.61148V11.736H10.1555V21.6H19.0475V11.736H24.6275V36ZM45.4552 16.2H39.5512V36H33.9712V16.2H28.0312V11.736H45.4552V16.2ZM53.8772 36H48.3332L50.4212 11.736H56.5052L59.8892 20.52C60.4652 21.984 60.9572 23.328 61.3652 24.552C61.7732 25.776 62.0372 26.64 62.1572 27.144L62.3372 27.864C62.7212 26.28 63.5612 23.832 64.8572 20.52L68.2772 11.736H74.3612L76.8812 36H71.3372L70.4372 26.604L69.9692 19.512C69.3452 21.312 68.4812 23.676 67.3772 26.604L63.9572 35.748H60.6812L57.2972 26.604C56.7452 25.116 56.2772 23.784 55.8932 22.608C55.5092 21.432 55.2572 20.616 55.1372 20.16L54.9572 19.512C54.9572 21.216 54.8492 23.58 54.6332 26.604L53.8772 36ZM95.514 36H81.006V11.736H86.55V31.14H95.514V36ZM113.164 28.116C113.164 30.564 112.348 32.532 110.716 34.02C109.108 35.484 106.816 36.216 103.84 36.216C101.224 36.216 99.1121 35.796 97.5041 34.956V29.988C99.1361 30.996 100.96 31.5 102.976 31.5C106.192 31.5 107.8 30.348 107.8 28.044C107.8 27.18 107.464 26.496 106.792 25.992C106.144 25.488 105.16 25.236 103.84 25.236C101.992 25.236 100.216 25.632 98.5121 26.424V12.384H111.724V16.848H103.624V20.844C104.152 20.772 104.68 20.736 105.208 20.736C107.776 20.736 109.744 21.396 111.112 22.716C112.48 24.036 113.164 25.836 113.164 28.116ZM133.036 17.856C133.036 18.912 133.864 20.268 135.52 21.924C137.32 20.94 138.22 19.728 138.22 18.288C138.22 17.4 137.968 16.716 137.464 16.236C136.984 15.756 136.312 15.516 135.448 15.516C134.752 15.516 134.176 15.72 133.72 16.128C133.264 16.536 133.036 17.112 133.036 17.856ZM149.776 36H143.332L141.928 34.596C139.984 35.724 137.776 36.288 135.304 36.288C132.136 36.288 129.628 35.616 127.78 34.272C125.956 32.928 125.044 31.296 125.044 29.376C125.044 26.4 126.748 24.36 130.156 23.256C128.524 21.456 127.708 19.68 127.708 17.928C127.708 15.792 128.44 14.148 129.904 12.996C131.368 11.82 133.216 11.232 135.448 11.232C137.968 11.232 139.936 11.832 141.352 13.032C142.792 14.208 143.512 15.864 143.512 18C143.512 19.416 143.104 20.676 142.288 21.78C141.496 22.86 140.2 23.856 138.4 24.768L141.928 28.224C142.36 27.288 142.576 26.268 142.576 25.164H147.292C147.292 27.564 146.62 29.7 145.276 31.572L149.776 36ZM135.34 31.968C136.468 31.968 137.536 31.752 138.544 31.32L133.972 26.856C133.9 26.784 133.78 26.676 133.612 26.532C133.468 26.388 133.348 26.268 133.252 26.172C132.148 26.556 131.392 26.988 130.984 27.468C130.6 27.948 130.408 28.524 130.408 29.196C130.408 30.012 130.876 30.684 131.812 31.212C132.748 31.716 133.924 31.968 135.34 31.968ZM179.231 34.92C177.767 35.832 175.655 36.288 172.895 36.288C169.343 36.288 166.367 35.148 163.967 32.868C161.591 30.564 160.403 27.588 160.403 23.94C160.403 20.244 161.555 17.232 163.859 14.904C166.187 12.576 169.211 11.412 172.931 11.412C175.667 11.412 177.767 11.868 179.231 12.78V18.108C177.431 17.004 175.427 16.452 173.219 16.452C171.275 16.452 169.643 17.136 168.323 18.504C167.003 19.848 166.343 21.66 166.343 23.94C166.343 26.172 167.003 27.948 168.323 29.268C169.643 30.564 171.347 31.212 173.435 31.212C175.691 31.212 177.623 30.636 179.231 29.484V34.92ZM198.465 28.944C198.465 31.128 197.661 32.904 196.053 34.272C194.445 35.616 192.309 36.288 189.645 36.288C186.789 36.288 184.461 35.784 182.661 34.776V29.196C184.845 30.78 187.173 31.572 189.645 31.572C190.485 31.572 191.181 31.356 191.733 30.924C192.285 30.468 192.561 29.88 192.561 29.16C192.561 28.92 192.525 28.692 192.453 28.476C192.381 28.26 192.249 28.056 192.057 27.864C191.865 27.672 191.673 27.516 191.481 27.396C191.313 27.252 191.049 27.096 190.689 26.928C190.353 26.736 190.065 26.58 189.825 26.46C189.585 26.34 189.225 26.172 188.745 25.956C188.289 25.74 187.917 25.572 187.629 25.452C186.069 24.732 184.809 23.844 183.849 22.788C182.913 21.732 182.445 20.328 182.445 18.576C182.445 16.488 183.213 14.808 184.749 13.536C186.285 12.24 188.409 11.592 191.121 11.592C193.545 11.592 195.633 12 197.385 12.816V18C195.441 16.872 193.425 16.308 191.337 16.308C190.401 16.308 189.681 16.5 189.177 16.884C188.697 17.268 188.457 17.76 188.457 18.36C188.457 18.96 188.757 19.5 189.357 19.98C189.957 20.436 190.857 20.928 192.057 21.456C192.801 21.792 193.413 22.092 193.893 22.356C194.397 22.596 194.961 22.944 195.585 23.4C196.233 23.832 196.737 24.3 197.097 24.804C197.481 25.284 197.805 25.884 198.069 26.604C198.333 27.324 198.465 28.104 198.465 28.944ZM216.957 28.944C216.957 31.128 216.153 32.904 214.545 34.272C212.937 35.616 210.801 36.288 208.137 36.288C205.281 36.288 202.953 35.784 201.153 34.776V29.196C203.337 30.78 205.665 31.572 208.137 31.572C208.977 31.572 209.673 31.356 210.225 30.924C210.777 30.468 211.053 29.88 211.053 29.16C211.053 28.92 211.017 28.692 210.945 28.476C210.873 28.26 210.741 28.056 210.549 27.864C210.357 27.672 210.165 27.516 209.973 27.396C209.805 27.252 209.541 27.096 209.181 26.928C208.845 26.736 208.557 26.58 208.317 26.46C208.077 26.34 207.717 26.172 207.237 25.956C206.781 25.74 206.409 25.572 206.121 25.452C204.561 24.732 203.301 23.844 202.341 22.788C201.405 21.732 200.937 20.328 200.937 18.576C200.937 16.488 201.705 14.808 203.241 13.536C204.777 12.24 206.901 11.592 209.613 11.592C212.037 11.592 214.125 12 215.877 12.816V18C213.933 16.872 211.917 16.308 209.829 16.308C208.893 16.308 208.173 16.5 207.669 16.884C207.189 17.268 206.949 17.76 206.949 18.36C206.949 18.96 207.249 19.5 207.849 19.98C208.449 20.436 209.349 20.928 210.549 21.456C211.293 21.792 211.905 22.092 212.385 22.356C212.889 22.596 213.453 22.944 214.077 23.4C214.725 23.832 215.229 24.3 215.589 24.804C215.973 25.284 216.297 25.884 216.561 26.604C216.825 27.324 216.957 28.104 216.957 28.944ZM234.153 29.52C234.153 31.536 233.385 33.156 231.849 34.38C230.337 35.58 228.213 36.18 225.477 36.18C222.909 36.18 220.785 35.772 219.105 34.956V29.916C221.025 30.972 223.005 31.5 225.045 31.5C226.221 31.5 227.133 31.248 227.781 30.744C228.453 30.24 228.789 29.604 228.789 28.836C228.789 27.084 227.169 26.208 223.929 26.208H222.669V21.888H223.929C225.201 21.888 226.245 21.672 227.061 21.24C227.877 20.808 228.285 20.16 228.285 19.296C228.285 17.64 227.205 16.812 225.045 16.812C223.389 16.812 221.721 17.328 220.041 18.36V13.464C221.817 12.576 223.605 12.132 225.405 12.132C227.949 12.132 229.965 12.744 231.453 13.968C232.941 15.168 233.685 16.74 233.685 18.684C233.685 21.348 232.473 23.184 230.049 24.192C232.785 24.84 234.153 26.616 234.153 29.52ZM242.808 18.684C243.432 19.284 243.744 20.028 243.744 20.916C243.744 21.804 243.432 22.56 242.808 23.184C242.208 23.784 241.464 24.084 240.576 24.084C239.688 24.084 238.932 23.784 238.308 23.184C237.708 22.56 237.408 21.804 237.408 20.916C237.408 20.028 237.708 19.284 238.308 18.684C238.932 18.06 239.688 17.748 240.576 17.748C241.464 17.748 242.208 18.06 242.808 18.684ZM242.808 30.6C243.432 31.2 243.744 31.944 243.744 32.832C243.744 33.72 243.432 34.476 242.808 35.1C242.208 35.7 241.464 36 240.576 36C239.688 36 238.932 35.7 238.308 35.1C237.708 34.476 237.408 33.72 237.408 32.832C237.408 31.944 237.708 31.2 238.308 30.6C238.932 29.976 239.688 29.664 240.576 29.664C241.464 29.664 242.208 29.976 242.808 30.6ZM51.8403 75.704L51.5883 76.568H57.4203L57.1683 75.704C56.4723 73.352 55.8963 71.348 55.4403 69.692C55.0083 68.036 54.7443 66.968 54.6483 66.488L54.5043 65.768C54.3123 67.088 53.4243 70.4 51.8403 75.704ZM48.7803 86H42.9843L51.0843 61.736H58.0683L66.1683 86H60.2283L58.7523 81.032H50.2563L48.7803 86ZM73.5997 76.928C73.5997 78.392 73.9837 79.58 74.7517 80.492C75.5197 81.38 76.4557 81.824 77.5597 81.824C78.7597 81.824 79.7317 81.356 80.4757 80.42C81.2197 79.484 81.5917 78.236 81.5917 76.676C81.5917 75.164 81.1837 73.988 80.3677 73.148C79.5757 72.308 78.6277 71.888 77.5237 71.888C76.4197 71.888 75.4837 72.332 74.7157 73.22C73.9717 74.108 73.5997 75.344 73.5997 76.928ZM86.8477 86H81.5917V83.156C80.3677 85.196 78.5437 86.216 76.1197 86.216C73.7437 86.216 71.8357 85.292 70.3957 83.444C68.9797 81.596 68.2717 79.388 68.2717 76.82C68.2717 73.94 69.0157 71.672 70.5037 70.016C71.9917 68.36 73.8757 67.532 76.1557 67.532C78.5317 67.532 80.3437 68.54 81.5917 70.556V60.548H86.8477V86ZM101.332 86H95.9315L89.1995 67.748H94.7075L97.0835 75.524C97.4435 76.724 97.7555 77.864 98.0195 78.944C98.2835 80 98.4515 80.768 98.5235 81.248L98.6675 81.932C98.8835 80.372 99.4235 78.236 100.288 75.524L102.736 67.748H108.136L101.332 86ZM117.176 82.4C117.92 82.4 118.496 82.172 118.904 81.716C119.312 81.26 119.516 80.636 119.516 79.844V78.512H117.824C116.936 78.512 116.252 78.704 115.772 79.088C115.292 79.472 115.052 79.964 115.052 80.564C115.052 81.788 115.76 82.4 117.176 82.4ZM119.768 83.768C119 85.328 117.488 86.108 115.232 86.108C113.456 86.108 112.064 85.604 111.056 84.596C110.072 83.588 109.58 82.328 109.58 80.816C109.58 79.064 110.216 77.708 111.488 76.748C112.784 75.764 114.692 75.272 117.212 75.272H119.516V74.012C119.516 72.476 118.496 71.708 116.456 71.708C114.488 71.708 112.664 72.26 110.984 73.364V68.648C112.424 67.832 114.5 67.424 117.212 67.424C119.804 67.424 121.736 67.988 123.008 69.116C124.28 70.22 124.916 71.948 124.916 74.3V86H119.768V83.768ZM145.783 86H140.527V75.128C140.527 74.048 140.275 73.232 139.771 72.68C139.267 72.104 138.559 71.816 137.647 71.816C136.687 71.816 135.883 72.2 135.235 72.968C134.611 73.712 134.299 74.84 134.299 76.352V86H129.043V67.748H134.299V70.844C134.755 69.836 135.451 69.044 136.387 68.468C137.347 67.868 138.487 67.568 139.807 67.568C141.679 67.568 143.143 68.132 144.199 69.26C145.255 70.364 145.783 71.996 145.783 74.156V86ZM163.57 85.136C162.154 85.904 160.45 86.288 158.458 86.288C155.722 86.288 153.466 85.424 151.69 83.696C149.914 81.944 149.026 79.688 149.026 76.928C149.074 74.192 149.962 71.936 151.69 70.16C153.418 68.36 155.782 67.46 158.782 67.46C160.63 67.46 162.226 67.808 163.57 68.504V73.004C162.298 72.212 160.882 71.816 159.322 71.816C157.858 71.816 156.67 72.26 155.758 73.148C154.846 74.012 154.378 75.272 154.354 76.928C154.45 78.536 154.93 79.784 155.794 80.672C156.658 81.56 157.798 82.004 159.214 82.004C160.726 82.004 162.178 81.584 163.57 80.744V85.136ZM181.129 84.956C179.881 85.772 177.973 86.18 175.405 86.18C172.405 86.18 170.065 85.316 168.385 83.588C166.729 81.836 165.901 79.592 165.901 76.856C165.901 73.952 166.705 71.684 168.313 70.052C169.945 68.396 171.949 67.568 174.325 67.568C176.773 67.568 178.705 68.288 180.121 69.728C181.537 71.144 182.245 73.268 182.245 76.1C182.245 76.652 182.149 77.6 181.957 78.944H171.229C171.589 79.952 172.213 80.732 173.101 81.284C173.989 81.836 175.057 82.112 176.305 82.112C178.153 82.112 179.761 81.596 181.129 80.564V84.956ZM174.541 71.564C173.701 71.564 172.957 71.876 172.309 72.5C171.661 73.1 171.229 74 171.013 75.2H177.349V74.768C177.181 72.632 176.245 71.564 174.541 71.564ZM190.424 76.928C190.424 78.392 190.808 79.58 191.576 80.492C192.344 81.38 193.28 81.824 194.384 81.824C195.584 81.824 196.556 81.356 197.3 80.42C198.044 79.484 198.416 78.236 198.416 76.676C198.416 75.164 198.008 73.988 197.192 73.148C196.4 72.308 195.452 71.888 194.348 71.888C193.244 71.888 192.308 72.332 191.54 73.22C190.796 74.108 190.424 75.344 190.424 76.928ZM203.672 86H198.416V83.156C197.192 85.196 195.368 86.216 192.944 86.216C190.568 86.216 188.66 85.292 187.22 83.444C185.804 81.596 185.096 79.388 185.096 76.82C185.096 73.94 185.84 71.672 187.328 70.016C188.816 68.36 190.7 67.532 192.98 67.532C195.356 67.532 197.168 68.54 198.416 70.556V60.548H203.672V86ZM69.5101 121.6H66.0901V136H60.8701V121.6H58.4941V117.748H60.8701V117.064C60.8701 114.856 61.4821 113.14 62.7061 111.916C63.9541 110.692 65.6701 110.08 67.8541 110.08C68.9821 110.08 69.8941 110.2 70.5901 110.44V114.688C69.9181 114.424 69.2941 114.292 68.7181 114.292C67.8301 114.292 67.1701 114.496 66.7381 114.904C66.3061 115.312 66.0901 116.032 66.0901 117.064V117.748H69.5101V121.6ZM86.3474 134.956C85.0994 135.772 83.1914 136.18 80.6234 136.18C77.6234 136.18 75.2834 135.316 73.6034 133.588C71.9474 131.836 71.1194 129.592 71.1194 126.856C71.1194 123.952 71.9234 121.684 73.5314 120.052C75.1634 118.396 77.1674 117.568 79.5434 117.568C81.9914 117.568 83.9234 118.288 85.3394 119.728C86.7554 121.144 87.4634 123.268 87.4634 126.1C87.4634 126.652 87.3674 127.6 87.1754 128.944H76.4474C76.8074 129.952 77.4314 130.732 78.3194 131.284C79.2074 131.836 80.2754 132.112 81.5234 132.112C83.3714 132.112 84.9794 131.596 86.3474 130.564V134.956ZM79.7594 121.564C78.9194 121.564 78.1754 121.876 77.5274 122.5C76.8794 123.1 76.4474 124 76.2314 125.2H82.5674V124.768C82.3994 122.632 81.4634 121.564 79.7594 121.564ZM97.9107 132.4C98.6547 132.4 99.2307 132.172 99.6387 131.716C100.047 131.26 100.251 130.636 100.251 129.844V128.512H98.5587C97.6707 128.512 96.9867 128.704 96.5067 129.088C96.0267 129.472 95.7867 129.964 95.7867 130.564C95.7867 131.788 96.4947 132.4 97.9107 132.4ZM100.503 133.768C99.7347 135.328 98.2227 136.108 95.9667 136.108C94.1907 136.108 92.7987 135.604 91.7907 134.596C90.8067 133.588 90.3147 132.328 90.3147 130.816C90.3147 129.064 90.9507 127.708 92.2227 126.748C93.5187 125.764 95.4267 125.272 97.9467 125.272H100.251V124.012C100.251 122.476 99.2307 121.708 97.1907 121.708C95.2227 121.708 93.3987 122.26 91.7187 123.364V118.648C93.1587 117.832 95.2347 117.424 97.9467 117.424C100.539 117.424 102.471 117.988 103.743 119.116C105.015 120.22 105.651 121.948 105.651 124.3V136H100.503V133.768ZM120.433 135.604C119.545 135.988 118.345 136.18 116.833 136.18C112.681 136.18 110.605 134.104 110.605 129.952V121.6H107.977V117.748H110.605V113.428H115.861V117.748H120.109V121.6H115.861V129.988C115.861 130.636 116.041 131.128 116.401 131.464C116.785 131.8 117.277 131.968 117.877 131.968C118.837 131.968 119.689 131.728 120.433 131.248V135.604ZM140.224 136H134.968V133.084C134.008 135.124 132.16 136.144 129.424 136.144C127.552 136.144 126.088 135.628 125.032 134.596C124 133.54 123.484 131.992 123.484 129.952V117.748H128.74V128.764C128.74 130.9 129.676 131.968 131.548 131.968C133.828 131.968 134.968 130.444 134.968 127.396V117.748H140.224V136ZM149.767 136H144.511L144.547 117.748H149.767V121.132C150.103 120.076 150.655 119.236 151.423 118.612C152.215 117.964 153.127 117.64 154.159 117.64C154.735 117.64 155.191 117.688 155.527 117.784V122.752C154.951 122.488 154.291 122.356 153.547 122.356C152.419 122.356 151.507 122.776 150.811 123.616C150.115 124.432 149.767 125.524 149.767 126.892V136ZM172.199 134.956C170.951 135.772 169.043 136.18 166.475 136.18C163.475 136.18 161.135 135.316 159.455 133.588C157.799 131.836 156.971 129.592 156.971 126.856C156.971 123.952 157.775 121.684 159.383 120.052C161.015 118.396 163.019 117.568 165.395 117.568C167.843 117.568 169.775 118.288 171.191 119.728C172.607 121.144 173.315 123.268 173.315 126.1C173.315 126.652 173.219 127.6 173.027 128.944H162.299C162.659 129.952 163.283 130.732 164.171 131.284C165.059 131.836 166.127 132.112 167.375 132.112C169.223 132.112 170.831 131.596 172.199 130.564V134.956ZM165.611 121.564C164.771 121.564 164.027 121.876 163.379 122.5C162.731 123.1 162.299 124 162.083 125.2H168.419V124.768C168.251 122.632 167.315 121.564 165.611 121.564ZM189.522 130.492C189.522 132.292 188.874 133.684 187.578 134.668C186.282 135.652 184.566 136.144 182.43 136.144C180.222 136.144 178.374 135.772 176.886 135.028V130.348C178.542 131.5 180.294 132.076 182.142 132.076C183.462 132.076 184.122 131.656 184.122 130.816C184.122 130.6 184.062 130.396 183.942 130.204C183.822 130.012 183.618 129.832 183.33 129.664C183.042 129.496 182.778 129.364 182.538 129.268C182.298 129.148 181.95 128.992 181.494 128.8C181.038 128.608 180.69 128.452 180.45 128.332C178.026 127.18 176.814 125.452 176.814 123.148C176.814 121.372 177.486 119.992 178.83 119.008C180.198 118.024 181.89 117.532 183.906 117.532C185.778 117.532 187.338 117.784 188.586 118.288V122.788C187.314 122.044 185.826 121.672 184.122 121.672C183.498 121.672 183.018 121.804 182.682 122.068C182.346 122.308 182.178 122.62 182.178 123.004C182.178 123.22 182.238 123.424 182.358 123.616C182.478 123.808 182.67 123.988 182.934 124.156C183.222 124.324 183.486 124.48 183.726 124.624C183.99 124.744 184.338 124.9 184.77 125.092C185.226 125.284 185.586 125.452 185.85 125.596C186.954 126.172 187.842 126.844 188.514 127.612C189.186 128.356 189.522 129.316 189.522 130.492Z" fill="white"/>
</g>
<defs>
<filter id="filter0_d" x="0.611511" y="11.2321" width="247.132" height="132.948" filterUnits="userSpaceOnUse" color-interpolation-filters="sRGB">
<feFlood flood-opacity="0" result="BackgroundImageFix"/>
<feColorMatrix in="SourceAlpha" type="matrix" values="0 0 0 0 0 0 0 0 0 0 0 0 0 0 0 0 0 0 127 0"/>
<feOffset dy="4"/>
<feGaussianBlur stdDeviation="2"/>
<feColorMatrix type="matrix" values="0 0 0 0 0 0 0 0 0 0 0 0 0 0 0 0 0 0 0.25 0"/>
<feBlend mode="normal" in2="BackgroundImageFix" result="effect1_dropShadow"/>
<feBlend mode="normal" in="SourceGraphic" in2="effect1_dropShadow" result="shape"/>
</filter>
</defs>
</svg>
