<svg width="277" height="81" viewBox="0 0 277 81" fill="none" xmlns="http://www.w3.org/2000/svg">
<path d="M0.856 1.23999H25.528C38.968 1.23999 45.688 8.696 45.688 23.608C45.688 31.48 43.768 37.08 39.928 40.408C36.088 43.672 30.744 45.304 23.896 45.304H16.6V79H0.856V1.23999ZM22.264 34.168C25.656 34.168 27.928 33.368 29.08 31.768C30.232 30.168 30.808 27.352 30.808 23.32C30.808 20.696 30.616 18.648 30.232 17.176C29.848 15.64 29.016 14.456 27.736 13.624C26.52 12.792 24.664 12.376 22.168 12.376H16.6V34.168H22.264ZM50.659 1.23999H64.003L69.475 48.76L76.291 1.336H86.947L94.051 48.568L99.523 1.23999H112.675L102.691 79H89.155L81.667 29.752L74.467 79H60.739L50.659 1.23999ZM142.836 80.056C134.58 80.056 128.692 77.912 125.172 73.624C121.652 69.272 119.892 62.904 119.892 54.52V25.528C119.892 17.144 121.652 10.84 125.172 6.616C128.692 2.392 134.58 0.279995 142.836 0.279995C151.028 0.279995 156.884 2.424 160.404 6.712C163.988 10.936 165.78 17.208 165.78 25.528V54.616C165.78 62.936 163.988 69.272 160.404 73.624C156.884 77.912 151.028 80.056 142.836 80.056ZM142.836 68.728C145.524 68.728 147.316 67.832 148.212 66.04C149.172 64.184 149.652 61.656 149.652 58.456V21.688C149.652 18.488 149.172 16.024 148.212 14.296C147.316 12.504 145.524 11.608 142.836 11.608C140.148 11.608 138.324 12.504 137.364 14.296C136.468 16.024 136.02 18.488 136.02 21.688V58.456C136.02 61.72 136.468 64.248 137.364 66.04C138.26 67.832 140.084 68.728 142.836 68.728ZM176.356 1.23999H196.516C204.9 1.23999 211.204 2.776 215.428 5.848C219.652 8.92 221.764 14.232 221.764 21.784C221.764 26.84 221.06 30.936 219.652 34.072C218.244 37.144 215.748 39.48 212.164 41.08L222.916 79H206.692L197.86 43.768H192.1V79H176.356V1.23999ZM196.804 34.36C200.516 34.36 203.108 33.464 204.58 31.672C206.116 29.816 206.884 26.936 206.884 23.032C206.884 19.192 206.212 16.376 204.868 14.584C203.524 12.792 201.092 11.896 197.572 11.896H192.1V34.36H196.804ZM232.325 1.23999H251.333C257.861 1.23999 262.949 2.10399 266.597 3.832C270.309 5.496 272.933 8.088 274.469 11.608C276.069 15.128 276.869 19.8 276.869 25.624V53.944C276.869 59.896 276.101 64.696 274.565 68.344C273.029 71.928 270.437 74.616 266.789 76.408C263.141 78.136 258.117 79 251.717 79H232.325V1.23999ZM251.525 67.96C254.277 67.96 256.293 67.544 257.573 66.712C258.917 65.816 259.749 64.536 260.069 62.872C260.453 61.208 260.645 58.808 260.645 55.672V23.512C260.645 20.568 260.421 18.36 259.973 16.888C259.589 15.352 258.757 14.232 257.477 13.528C256.197 12.76 254.181 12.376 251.429 12.376H248.069V67.96H251.525Z" fill="white"/>
</svg>
