<svg width="203" height="201" viewBox="0 0 203 201" fill="none" xmlns="http://www.w3.org/2000/svg">
<g filter="url(#filter0_d)">
<path d="M99.0666 2L98.5866 8.96V24.656C98.5866 29.52 97.5626 33.088 95.5146 35.36C93.4986 37.632 90.3466 38.768 86.0586 38.768C81.7706 38.768 78.6026 37.632 76.5546 35.36C74.5386 33.088 73.5306 29.52 73.5306 24.656V8.96L73.0506 2H80.9226L80.4426 8.96V24.656C80.4426 27.312 80.8586 29.2 81.6906 30.32C82.5546 31.44 84.0106 32 86.0586 32C88.1066 32 89.5466 31.44 90.3786 30.32C91.2426 29.2 91.6746 27.312 91.6746 24.656V8.96L91.1946 2H99.0666ZM132.371 38H123.059L119.747 30.8L116.531 25.28L113.363 30.8L110.243 38H100.979L105.827 30.8L111.971 19.712L106.163 8.96L101.507 2H110.819L113.891 8.96L116.579 13.76L119.219 8.96L122.099 2H131.363L126.755 8.96L121.139 19.52L127.475 30.8L132.371 38ZM84.9466 77.264C84.9466 74.704 85.5066 72.656 86.6266 71.12C87.7466 69.584 89.6186 68.208 92.2426 66.992C90.6426 64.144 89.8426 61.616 89.8426 59.408C89.8426 56.24 90.6266 53.808 92.1946 52.112C93.7946 50.384 96.2106 49.52 99.4426 49.52C102.643 49.52 105.059 50.336 106.691 51.968C108.355 53.568 109.187 55.968 109.187 59.168C109.187 61.504 108.531 63.584 107.219 65.408C105.939 67.232 104.115 68.656 101.747 69.68L102.947 71.072C104.419 72.736 105.539 74.048 106.307 75.008L107.555 73.232C108.291 72.176 108.867 71.328 109.283 70.688L110.387 66.896H118.163C117.363 68.912 116.339 70.912 115.091 72.896C113.875 74.848 112.515 76.672 111.011 78.368C112.515 79.328 113.763 79.808 114.755 79.808C116.195 79.808 117.555 79.648 118.835 79.328L119.363 79.616L117.395 85.424C116.659 85.744 116.035 85.952 115.523 86.048C115.011 86.144 114.307 86.192 113.411 86.192C112.291 86.192 111.075 85.872 109.763 85.232C108.451 84.592 107.139 83.632 105.827 82.352C104.323 83.728 102.739 84.768 101.075 85.472C99.4106 86.176 97.7626 86.528 96.1306 86.528C92.3226 86.528 89.5066 85.76 87.6826 84.224C85.8586 82.688 84.9466 80.368 84.9466 77.264ZM96.2746 59.168C96.2746 60.384 96.9466 62.368 98.2906 65.12C99.8906 64.128 101.027 63.168 101.699 62.24C102.403 61.28 102.755 60.208 102.755 59.024C102.755 58 102.483 57.2 101.939 56.624C101.395 56.048 100.627 55.76 99.6346 55.76C97.3946 55.76 96.2746 56.896 96.2746 59.168ZM91.3786 76.688C91.3786 77.808 91.7626 78.688 92.5306 79.328C93.3306 79.936 94.3866 80.24 95.6986 80.24C97.2026 80.24 98.9146 79.744 100.835 78.752C98.6266 76.48 96.6906 74.08 95.0266 71.552C93.6506 72.448 92.6906 73.264 92.1466 74C91.6346 74.736 91.3786 75.632 91.3786 76.688ZM40.264 98C45.096 98 48.632 99.488 50.872 102.464C53.144 105.408 54.28 109.872 54.28 115.856C54.28 121.904 53.144 126.448 50.872 129.488C48.6 132.496 45.064 134 40.264 134H27.88L28.36 126.8V104.96L27.88 98H40.264ZM40.264 127.376C41.96 127.376 43.304 127.008 44.296 126.272C45.288 125.504 45.992 124.288 46.408 122.624C46.856 120.96 47.08 118.704 47.08 115.856C47.08 112.88 46.856 110.592 46.408 108.992C45.992 107.392 45.288 106.272 44.296 105.632C43.336 104.96 41.992 104.624 40.264 104.624H35.272V127.376H40.264ZM70.381 134.576C66.093 134.576 62.957 133.312 60.973 130.784C58.989 128.256 57.997 124.512 57.997 119.552C57.997 114.72 59.037 110.992 61.117 108.368C63.229 105.744 66.317 104.432 70.381 104.432C74.381 104.432 77.341 105.44 79.261 107.456C81.213 109.472 82.349 112.656 82.669 117.008L81.373 122.048H65.005C65.133 123.616 65.437 124.816 65.917 125.648C66.397 126.48 67.085 127.056 67.981 127.376C68.909 127.696 70.189 127.856 71.821 127.856C73.965 127.856 75.869 127.664 77.533 127.28C79.229 126.896 80.381 126.4 80.989 125.792L81.805 126.224L80.317 132.08C79.101 133.008 77.725 133.648 76.189 134C74.653 134.384 72.717 134.576 70.381 134.576ZM75.853 117.008C75.853 114.992 75.421 113.504 74.557 112.544C73.693 111.552 72.365 111.056 70.573 111.056C68.685 111.056 67.309 111.504 66.445 112.4C65.613 113.264 65.117 114.8 64.957 117.008H75.853ZM96.6865 134.48C94.5105 134.48 92.7185 134.192 91.3105 133.616C89.9345 133.008 88.5425 131.984 87.1345 130.544L86.2225 124.496L86.8945 124.304C88.1105 125.36 89.5025 126.192 91.0705 126.8C92.6385 127.408 94.2065 127.712 95.7745 127.712C97.3425 127.712 98.4305 127.568 99.0385 127.28C99.6785 126.96 99.9985 126.416 99.9985 125.648C99.9985 124.944 99.5985 124.352 98.7985 123.872C98.0305 123.392 96.6705 122.864 94.7185 122.288C92.7345 121.712 91.1825 121.072 90.0625 120.368C88.9425 119.664 88.1265 118.784 87.6145 117.728C87.1025 116.64 86.8465 115.28 86.8465 113.648C86.8465 110.736 87.7105 108.496 89.4385 106.928C91.1985 105.36 93.6785 104.576 96.8785 104.576C98.8305 104.576 100.543 104.832 102.015 105.344C103.519 105.824 104.863 106.592 106.047 107.648L104.991 113.696L104.271 113.888C103.759 113.056 102.831 112.4 101.487 111.92C100.175 111.44 98.8465 111.2 97.5025 111.2C95.0065 111.2 93.7585 111.904 93.7585 113.312C93.7585 114.112 94.0945 114.736 94.7665 115.184C95.4705 115.632 96.8145 116.128 98.7985 116.672C101.615 117.44 103.663 118.512 104.943 119.888C106.255 121.232 106.911 123.056 106.911 125.36C106.911 128.304 106.015 130.56 104.223 132.128C102.431 133.696 99.9185 134.48 96.6865 134.48ZM115.526 102.56C114.31 102.56 113.27 102.224 112.406 101.552C111.574 100.848 111.158 99.952 111.158 98.864C111.158 97.744 111.574 96.848 112.406 96.176C113.27 95.472 114.31 95.12 115.526 95.12C116.742 95.12 117.766 95.472 118.598 96.176C119.462 96.848 119.894 97.744 119.894 98.864C119.894 99.952 119.462 100.848 118.598 101.552C117.766 102.224 116.742 102.56 115.526 102.56ZM112.118 126.8V112.16L111.638 105.2H119.318L118.838 112.16V126.8L119.318 134H111.638L112.118 126.8ZM147.618 105.2L147.138 112.352V129.632C147.138 134.4 145.73 138.016 142.914 140.48C140.13 142.944 136.274 144.176 131.346 144.176L128.322 138.992L128.658 138.608C130.77 138.608 132.722 138.304 134.514 137.696C136.306 137.12 137.73 136.272 138.786 135.152C139.874 134.032 140.418 132.736 140.418 131.264V130.736C139.874 131.856 138.962 132.752 137.682 133.424C136.402 134.064 135.106 134.384 133.794 134.384C130.658 134.384 128.21 133.104 126.45 130.544C124.69 127.984 123.81 124.32 123.81 119.552C123.81 114.464 124.642 110.704 126.306 108.272C128.002 105.84 130.498 104.624 133.794 104.624C135.234 104.624 136.562 104.8 137.778 105.152C139.026 105.472 140.034 105.936 140.802 106.544L141.042 105.2H147.618ZM140.418 111.872C139.362 111.456 137.794 111.248 135.714 111.248C134.37 111.248 133.346 111.472 132.642 111.92C131.938 112.368 131.442 113.184 131.154 114.368C130.866 115.52 130.722 117.248 130.722 119.552C130.722 121.76 130.85 123.456 131.106 124.64C131.394 125.824 131.858 126.672 132.498 127.184C133.138 127.664 134.05 127.904 135.234 127.904C136.13 127.904 137.074 127.776 138.066 127.52C139.09 127.232 139.874 126.896 140.418 126.512V111.872ZM168.49 126.8V114.464C168.49 113.408 168.186 112.576 167.578 111.968C167.002 111.328 166.218 111.008 165.226 111.008C163.21 111.008 161.498 112.096 160.09 114.272V126.8L160.57 134H152.89L153.37 126.8V112.16L152.89 105.2H159.13L160.09 108.704C161.786 106.144 164.41 104.864 167.962 104.864C170.202 104.864 171.962 105.568 173.242 106.976C174.554 108.384 175.21 110.448 175.21 113.168V126.8L175.69 134H168.01L168.49 126.8ZM31.7247 152.816L31.1967 152.96L26.8767 152.384H22.4607V174.8L22.9407 182H15.0687L15.5487 174.8V152.384H11.1327L6.81269 152.96L6.28469 152.816L7.34069 146H30.6687L31.7247 152.816ZM50.4353 174.8V162.464C50.4353 161.408 50.1313 160.576 49.5233 159.968C48.9473 159.328 48.1633 159.008 47.1713 159.008C45.1553 159.008 43.4433 160.096 42.0353 162.272V174.8L42.5153 182H34.8353L35.3153 174.8V150.56L34.8353 143.6H42.5153L42.0353 150.56V156.704C43.7313 154.144 46.3553 152.864 49.9073 152.864C52.1473 152.864 53.9073 153.568 55.1873 154.976C56.4993 156.384 57.1553 158.448 57.1553 161.168V174.8L57.6353 182H49.9553L50.4353 174.8ZM66.3773 150.56C65.1613 150.56 64.1213 150.224 63.2573 149.552C62.4253 148.848 62.0093 147.952 62.0093 146.864C62.0093 145.744 62.4253 144.848 63.2573 144.176C64.1213 143.472 65.1613 143.12 66.3773 143.12C67.5933 143.12 68.6173 143.472 69.4493 144.176C70.3133 144.848 70.7453 145.744 70.7453 146.864C70.7453 147.952 70.3133 148.848 69.4493 149.552C68.6173 150.224 67.5933 150.56 66.3773 150.56ZM62.9693 174.8V160.16L62.4893 153.2H70.1693L69.6893 160.16V174.8L70.1693 182H62.4893L62.9693 174.8ZM91.0291 174.8V162.464C91.0291 161.408 90.7251 160.576 90.1171 159.968C89.5411 159.328 88.7571 159.008 87.7651 159.008C85.7491 159.008 84.0371 160.096 82.6291 162.272V174.8L83.1091 182H75.4291L75.9091 174.8V160.16L75.4291 153.2H81.6691L82.6291 156.704C84.3251 154.144 86.9491 152.864 90.5011 152.864C92.7411 152.864 94.5011 153.568 95.7811 154.976C97.0931 156.384 97.7491 158.448 97.7491 161.168V174.8L98.2291 182H90.5491L91.0291 174.8ZM128.523 182H119.739L117.291 175.04L114.315 168.848L110.379 173.744V174.8L110.859 182H103.179L103.659 174.8V150.56L103.179 143.6H110.859L110.379 150.56V165.536L114.411 160.16L118.347 153.2H127.611L121.371 160.16L118.539 163.664L124.347 175.04L128.523 182ZM134.721 150.56C133.505 150.56 132.465 150.224 131.601 149.552C130.769 148.848 130.353 147.952 130.353 146.864C130.353 145.744 130.769 144.848 131.601 144.176C132.465 143.472 133.505 143.12 134.721 143.12C135.937 143.12 136.961 143.472 137.793 144.176C138.657 144.848 139.089 145.744 139.089 146.864C139.089 147.952 138.657 148.848 137.793 149.552C136.961 150.224 135.937 150.56 134.721 150.56ZM131.313 174.8V160.16L130.833 153.2H138.513L138.033 160.16V174.8L138.513 182H130.833L131.313 174.8ZM159.373 174.8V162.464C159.373 161.408 159.069 160.576 158.461 159.968C157.885 159.328 157.101 159.008 156.109 159.008C154.093 159.008 152.381 160.096 150.973 162.272V174.8L151.453 182H143.773L144.253 174.8V160.16L143.773 153.2H150.013L150.973 156.704C152.669 154.144 155.293 152.864 158.845 152.864C161.085 152.864 162.845 153.568 164.125 154.976C165.437 156.384 166.093 158.448 166.093 161.168V174.8L166.573 182H158.893L159.373 174.8ZM194.563 153.2L194.083 160.352V177.632C194.083 182.4 192.675 186.016 189.859 188.48C187.075 190.944 183.219 192.176 178.291 192.176L175.267 186.992L175.603 186.608C177.715 186.608 179.667 186.304 181.459 185.696C183.251 185.12 184.675 184.272 185.731 183.152C186.819 182.032 187.363 180.736 187.363 179.264V178.736C186.819 179.856 185.907 180.752 184.627 181.424C183.347 182.064 182.051 182.384 180.739 182.384C177.603 182.384 175.155 181.104 173.395 178.544C171.635 175.984 170.755 172.32 170.755 167.552C170.755 162.464 171.587 158.704 173.251 156.272C174.947 153.84 177.443 152.624 180.739 152.624C182.179 152.624 183.507 152.8 184.723 153.152C185.971 153.472 186.979 153.936 187.747 154.544L187.987 153.2H194.563ZM187.363 159.872C186.307 159.456 184.739 159.248 182.659 159.248C181.315 159.248 180.291 159.472 179.587 159.92C178.883 160.368 178.387 161.184 178.099 162.368C177.811 163.52 177.667 165.248 177.667 167.552C177.667 169.76 177.795 171.456 178.051 172.64C178.339 173.824 178.803 174.672 179.443 175.184C180.083 175.664 180.995 175.904 182.179 175.904C183.075 175.904 184.019 175.776 185.011 175.52C186.035 175.232 186.819 174.896 187.363 174.512V159.872Z" fill="white"/>
</g>
<defs>
<filter id="filter0_d" x="2.2847" y="2" width="196.278" height="198.176" filterUnits="userSpaceOnUse" color-interpolation-filters="sRGB">
<feFlood flood-opacity="0" result="BackgroundImageFix"/>
<feColorMatrix in="SourceAlpha" type="matrix" values="0 0 0 0 0 0 0 0 0 0 0 0 0 0 0 0 0 0 127 0"/>
<feOffset dy="4"/>
<feGaussianBlur stdDeviation="2"/>
<feColorMatrix type="matrix" values="0 0 0 0 0 0 0 0 0 0 0 0 0 0 0 0 0 0 0.25 0"/>
<feBlend mode="normal" in2="BackgroundImageFix" result="effect1_dropShadow"/>
<feBlend mode="normal" in="SourceGraphic" in2="effect1_dropShadow" result="shape"/>
</filter>
</defs>
</svg>
