<?xml version="1.0" standalone="no"?>
<!DOCTYPE svg PUBLIC "-//W3C//DTD SVG 20010904//EN"
 "http://www.w3.org/TR/2001/REC-SVG-20010904/DTD/svg10.dtd">
<svg version="1.0" xmlns="http://www.w3.org/2000/svg"
 width="512.000000pt" height="512.000000pt" viewBox="0 0 512.000000 512.000000"
 preserveAspectRatio="xMidYMid meet">
<metadata>
Created by potrace 1.11, written by Peter Selinger 2001-2013
</metadata>
<g transform="translate(0.000000,512.000000) scale(0.100000,-0.100000)"
fill="#000000" stroke="none">
<path d="M2379 5115 c-2 -1 -35 -6 -74 -9 -38 -4 -81 -8 -95 -11 -14 -2 -43
-6 -64 -10 -22 -3 -71 -12 -110 -21 -39 -8 -82 -17 -96 -20 -100 -20 -505
-177 -555 -214 -5 -4 -37 -22 -69 -40 -33 -17 -86 -49 -118 -71 -33 -21 -61
-39 -64 -39 -20 0 -279 -218 -383 -321 -400 -400 -653 -914 -732 -1489 -14
-103 -18 -439 -7 -560 22 -230 106 -554 194 -750 41 -89 121 -243 166 -319 43
-70 188 -275 207 -291 3 -3 22 -25 42 -50 74 -91 253 -262 379 -361 46 -37
237 -169 243 -169 2 0 42 -22 88 -48 361 -205 759 -311 1194 -317 238 -3 393
13 649 70 162 36 463 158 651 265 333 188 681 523 898 863 81 127 207 388 257
532 46 134 92 317 110 445 6 47 14 96 17 110 11 58 10 441 -2 540 -50 417
-183 783 -414 1135 -123 188 -346 433 -531 583 -80 64 -275 202 -287 202 -3 0
-17 8 -31 19 -42 30 -238 126 -337 166 -83 33 -315 109 -368 119 -106 22 -145
29 -237 42 -90 14 -511 29 -521 19z m391 -209 c47 -4 94 -9 105 -12 11 -2 34
-6 50 -8 223 -28 520 -125 745 -243 481 -254 859 -670 1064 -1169 42 -102 109
-310 121 -371 2 -16 9 -53 15 -83 6 -30 12 -64 14 -75 2 -11 7 -49 11 -85 4
-36 9 -74 12 -85 5 -27 5 -394 0 -420 -3 -11 -8 -54 -12 -95 -9 -103 -48 -285
-87 -405 -17 -55 -32 -102 -33 -105 -1 -3 -5 -14 -9 -25 -4 -11 -13 -33 -19
-50 -47 -133 -188 -383 -297 -530 -116 -154 -274 -320 -293 -308 -7 4 -36 22
-65 41 -87 55 -235 125 -427 201 -372 148 -519 240 -580 366 -26 52 -27 60
-29 260 -2 180 -1 208 13 218 60 45 155 227 194 372 13 50 24 94 24 100 0 5 9
14 19 20 102 55 152 153 159 308 4 70 -8 109 -46 159 l-29 37 24 88 c23 82 43
178 65 313 10 60 7 355 -4 409 -12 62 -52 170 -81 218 -63 108 -189 197 -316
224 -40 9 -60 19 -80 44 -77 91 -232 145 -427 147 -65 0 -191 -8 -233 -16
-377 -71 -575 -244 -659 -579 -46 -180 -30 -518 36 -781 l16 -65 -29 -38 c-58
-73 -64 -166 -20 -306 25 -78 73 -141 121 -156 23 -8 33 -18 34 -33 7 -91 84
-291 147 -383 12 -16 36 -45 54 -65 l33 -35 -4 -210 c-4 -238 -7 -250 -89
-336 -84 -90 -184 -144 -493 -269 -236 -95 -372 -159 -460 -214 -27 -18 -55
-35 -61 -39 -22 -13 -212 191 -321 345 -191 268 -317 558 -384 878 -11 52 -22
111 -25 130 -3 19 -7 46 -9 60 -18 103 -24 362 -11 510 7 90 11 121 27 210 5
30 12 69 14 85 9 51 68 257 88 310 11 28 26 70 35 95 27 77 145 300 211 400
297 446 710 764 1209 929 128 43 291 84 387 97 17 2 43 6 59 9 15 3 69 8 120
11 50 4 92 7 93 8 5 4 240 -2 313 -8z"/>
</g>
</svg>
